<svg width="693" height="296" viewBox="0 0 693 296" fill="none" xmlns="http://www.w3.org/2000/svg">
<line x1="32.5" y1="296" x2="32.5" y2="-1.98124e-08" stroke="url(#paint0_linear_736_1210)" stroke-opacity="0.5"/>
<line x1="77.6582" y1="296" x2="77.6582" y2="-1.98124e-08" stroke="url(#paint1_linear_736_1210)" stroke-opacity="0.5"/>
<line x1="122.815" y1="296" x2="122.815" y2="-1.98124e-08" stroke="url(#paint2_linear_736_1210)" stroke-opacity="0.5"/>
<line x1="167.974" y1="296" x2="167.974" y2="-1.98124e-08" stroke="url(#paint3_linear_736_1210)"/>
<line x1="213.131" y1="296" x2="213.131" y2="-1.98124e-08" stroke="url(#paint4_linear_736_1210)" stroke-opacity="0.5"/>
<line x1="258.289" y1="296" x2="258.289" y2="-1.98124e-08" stroke="url(#paint5_linear_736_1210)" stroke-opacity="0.5"/>
<line x1="303.447" y1="296" x2="303.447" y2="-1.98124e-08" stroke="url(#paint6_linear_736_1210)" stroke-opacity="0.5"/>
<line x1="348.605" y1="296" x2="348.605" y2="-1.98124e-08" stroke="url(#paint7_linear_736_1210)" stroke-opacity="0.5"/>
<line x1="393.763" y1="296" x2="393.763" y2="-1.98124e-08" stroke="url(#paint8_linear_736_1210)" stroke-opacity="0.5"/>
<line x1="438.921" y1="296" x2="438.921" y2="-1.98124e-08" stroke="url(#paint9_linear_736_1210)" stroke-opacity="0.5"/>
<line x1="484.079" y1="296" x2="484.079" y2="-1.98124e-08" stroke="url(#paint10_linear_736_1210)" stroke-opacity="0.5"/>
<line x1="529.237" y1="296" x2="529.237" y2="-1.98124e-08" stroke="url(#paint11_linear_736_1210)" stroke-opacity="0.5"/>
<line x1="574.395" y1="296" x2="574.395" y2="-1.98124e-08" stroke="url(#paint12_linear_736_1210)" stroke-opacity="0.5"/>
<line x1="619.553" y1="296" x2="619.553" y2="-1.98124e-08" stroke="url(#paint13_linear_736_1210)" stroke-opacity="0.5"/>
<line x1="664.71" y1="296" x2="664.71" y2="-1.98124e-08" stroke="url(#paint14_linear_736_1210)" stroke-opacity="0.5"/>
<line x1="693" y1="38.2872" y2="38.2872" stroke="url(#paint15_linear_736_1210)" stroke-opacity="0.5"/>
<line x1="693" y1="76.0745" y2="76.0745" stroke="url(#paint16_linear_736_1210)" stroke-opacity="0.5"/>
<line x1="693" y1="113.862" y2="113.862" stroke="url(#paint17_linear_736_1210)"/>
<line x1="693" y1="151.649" y2="151.649" stroke="url(#paint18_linear_736_1210)" stroke-opacity="0.5"/>
<line x1="693" y1="189.436" y2="189.436" stroke="url(#paint19_linear_736_1210)" stroke-opacity="0.5"/>
<line x1="693" y1="227.223" y2="227.223" stroke="url(#paint20_linear_736_1210)" stroke-opacity="0.5"/>
<line x1="693" y1="265.011" y2="265.011" stroke="url(#paint21_linear_736_1210)" stroke-opacity="0.5"/>
<defs>
<linearGradient id="paint0_linear_736_1210" x1="33" y1="299.985" x2="33.0005" y2="-5.12307" gradientUnits="userSpaceOnUse">
<stop/>
<stop offset="1" stop-color="white" stop-opacity="0"/>
</linearGradient>
<linearGradient id="paint1_linear_736_1210" x1="78.1582" y1="299.985" x2="78.1587" y2="-5.12307" gradientUnits="userSpaceOnUse">
<stop/>
<stop offset="1" stop-color="white" stop-opacity="0"/>
</linearGradient>
<linearGradient id="paint2_linear_736_1210" x1="123.315" y1="299.985" x2="123.316" y2="-5.12307" gradientUnits="userSpaceOnUse">
<stop/>
<stop offset="1" stop-color="white" stop-opacity="0"/>
</linearGradient>
<linearGradient id="paint3_linear_736_1210" x1="168.474" y1="299.985" x2="168.475" y2="-5.12307" gradientUnits="userSpaceOnUse">
<stop/>
<stop offset="1" stop-color="white" stop-opacity="0"/>
</linearGradient>
<linearGradient id="paint4_linear_736_1210" x1="213.631" y1="299.985" x2="213.632" y2="-5.12307" gradientUnits="userSpaceOnUse">
<stop/>
<stop offset="1" stop-color="white" stop-opacity="0"/>
</linearGradient>
<linearGradient id="paint5_linear_736_1210" x1="258.789" y1="299.985" x2="258.79" y2="-5.12307" gradientUnits="userSpaceOnUse">
<stop/>
<stop offset="1" stop-color="white" stop-opacity="0"/>
</linearGradient>
<linearGradient id="paint6_linear_736_1210" x1="303.947" y1="299.985" x2="303.948" y2="-5.12307" gradientUnits="userSpaceOnUse">
<stop/>
<stop offset="1" stop-color="white" stop-opacity="0"/>
</linearGradient>
<linearGradient id="paint7_linear_736_1210" x1="349.105" y1="299.985" x2="349.105" y2="-5.12307" gradientUnits="userSpaceOnUse">
<stop/>
<stop offset="1" stop-color="white" stop-opacity="0"/>
</linearGradient>
<linearGradient id="paint8_linear_736_1210" x1="394.263" y1="299.985" x2="394.264" y2="-5.12307" gradientUnits="userSpaceOnUse">
<stop/>
<stop offset="1" stop-color="white" stop-opacity="0"/>
</linearGradient>
<linearGradient id="paint9_linear_736_1210" x1="439.421" y1="299.985" x2="439.421" y2="-5.12307" gradientUnits="userSpaceOnUse">
<stop/>
<stop offset="1" stop-color="white" stop-opacity="0"/>
</linearGradient>
<linearGradient id="paint10_linear_736_1210" x1="484.579" y1="299.985" x2="484.58" y2="-5.12307" gradientUnits="userSpaceOnUse">
<stop/>
<stop offset="1" stop-color="white" stop-opacity="0"/>
</linearGradient>
<linearGradient id="paint11_linear_736_1210" x1="529.737" y1="299.985" x2="529.737" y2="-5.12307" gradientUnits="userSpaceOnUse">
<stop/>
<stop offset="1" stop-color="white" stop-opacity="0"/>
</linearGradient>
<linearGradient id="paint12_linear_736_1210" x1="574.895" y1="299.985" x2="574.895" y2="-5.12307" gradientUnits="userSpaceOnUse">
<stop/>
<stop offset="1" stop-color="white" stop-opacity="0"/>
</linearGradient>
<linearGradient id="paint13_linear_736_1210" x1="620.053" y1="299.985" x2="620.053" y2="-5.12307" gradientUnits="userSpaceOnUse">
<stop/>
<stop offset="1" stop-color="white" stop-opacity="0"/>
</linearGradient>
<linearGradient id="paint14_linear_736_1210" x1="665.21" y1="299.985" x2="665.211" y2="-5.12307" gradientUnits="userSpaceOnUse">
<stop/>
<stop offset="1" stop-color="white" stop-opacity="0"/>
</linearGradient>
<linearGradient id="paint15_linear_736_1210" x1="702.329" y1="37.7872" x2="-11.9942" y2="37.7848" gradientUnits="userSpaceOnUse">
<stop/>
<stop offset="1" stop-color="white" stop-opacity="0"/>
</linearGradient>
<linearGradient id="paint16_linear_736_1210" x1="702.329" y1="75.5745" x2="-11.9942" y2="75.572" gradientUnits="userSpaceOnUse">
<stop/>
<stop offset="1" stop-color="white" stop-opacity="0"/>
</linearGradient>
<linearGradient id="paint17_linear_736_1210" x1="702.329" y1="113.362" x2="-11.9942" y2="113.359" gradientUnits="userSpaceOnUse">
<stop/>
<stop offset="1" stop-color="white" stop-opacity="0"/>
</linearGradient>
<linearGradient id="paint18_linear_736_1210" x1="702.329" y1="151.149" x2="-11.9942" y2="151.146" gradientUnits="userSpaceOnUse">
<stop/>
<stop offset="1" stop-color="white" stop-opacity="0"/>
</linearGradient>
<linearGradient id="paint19_linear_736_1210" x1="702.329" y1="188.936" x2="-11.9942" y2="188.934" gradientUnits="userSpaceOnUse">
<stop/>
<stop offset="1" stop-color="white" stop-opacity="0"/>
</linearGradient>
<linearGradient id="paint20_linear_736_1210" x1="702.329" y1="226.723" x2="-11.9942" y2="226.721" gradientUnits="userSpaceOnUse">
<stop/>
<stop offset="1" stop-color="white" stop-opacity="0"/>
</linearGradient>
<linearGradient id="paint21_linear_736_1210" x1="702.329" y1="264.511" x2="-11.9942" y2="264.508" gradientUnits="userSpaceOnUse">
<stop/>
<stop offset="1" stop-color="white" stop-opacity="0"/>
</linearGradient>
</defs>
</svg>
